<?xml version="1.0" encoding="UTF-8" standalone="no"?>
<!DOCTYPE svg PUBLIC "-//W3C//DTD SVG 1.1//EN"
 "http://www.w3.org/Graphics/SVG/1.1/DTD/svg11.dtd">
<!-- Generated by graphviz version 2.39.0 (20140909.1705)
 -->
<!-- Title: G Pages: 1 -->
<svg width="566pt" height="342pt"
 viewBox="0.00 0.00 566.00 342.00" xmlns="http://www.w3.org/2000/svg" xmlns:xlink="http://www.w3.org/1999/xlink">
<g id="graph0" class="graph" transform="scale(1 1) rotate(0) translate(4 338)">
<title>G</title>
<polygon fill="white" stroke="none" points="-4,4 -4,-338 562,-338 562,4 -4,4"/>
<text text-anchor="middle" x="279" y="-6.8" font-family="Helvetica,sans-Serif" font-weight="bold" font-size="14.00">Github Repos</text>
<g id="clust1" class="cluster"><title>cluster0</title>
<polygon fill="none" stroke="black" points="101,-132 101,-326 517,-326 517,-132 101,-132"/>
<text text-anchor="middle" x="309" y="-310.8" font-family="Helvetica,sans-Serif" font-weight="bold" font-size="14.00">GitHub</text>
</g>
<g id="clust4" class="cluster"><title>cluster3</title>
<polygon fill="none" stroke="black" points="404,-30 404,-104 550,-104 550,-30 404,-30"/>
<text text-anchor="middle" x="477" y="-88.8" font-family="Helvetica,sans-Serif" font-weight="bold" font-size="14.00">Cary&#39;s Workstation</text>
</g>
<g id="clust3" class="cluster"><title>cluster2</title>
<polygon fill="none" stroke="black" points="260,-30 260,-104 396,-104 396,-30 260,-30"/>
<text text-anchor="middle" x="328" y="-88.8" font-family="Helvetica,sans-Serif" font-weight="bold" font-size="14.00">Bill&#39;s Workstation</text>
</g>
<g id="clust2" class="cluster"><title>cluster1</title>
<polygon fill="none" stroke="black" points="8,-30 8,-104 252,-104 252,-30 8,-30"/>
<text text-anchor="middle" x="130" y="-88.8" font-family="Helvetica,sans-Serif" font-weight="bold" font-size="14.00">Alice&#39;s Workstation</text>
</g>
<!-- project1 -->
<g id="node1" class="node"><title>project1</title>
<polygon fill="none" stroke="black" points="293,-296 239,-296 239,-260 293,-260 293,-296"/>
<text text-anchor="middle" x="266" y="-274.4" font-family="Helvetica,sans-Serif" font-size="12.00">merge</text>
</g>
<!-- a_project1fork -->
<g id="node2" class="node"><title>a_project1fork</title>
<polygon fill="none" stroke="black" points="233.49,-176 108.51,-176 108.51,-140 233.49,-140 233.49,-176"/>
<text text-anchor="middle" x="171" y="-154.4" font-family="Helvetica,sans-Serif" font-size="12.00">Alice&#39;s Project1 Fork</text>
</g>
<!-- project1&#45;&gt;a_project1fork -->
<g id="edge1" class="edge"><title>project1&#45;&gt;a_project1fork</title>
<path fill="none" stroke="black" d="M171.56,-186.337 172.963,-198.461 176.211,-212.265 183.33,-223 196.669,-243.113 220.143,-257.676 238.677,-266.745"/>
<polygon fill="black" stroke="black" points="170.752,-176.235 176.035,-185.845 171.151,-181.219 171.55,-186.203 171.55,-186.203 171.55,-186.203 171.151,-181.219 167.064,-186.562 170.752,-176.235 170.752,-176.235"/>
<text text-anchor="middle" x="192.335" y="-215" font-family="Helvetica,sans-Serif" font-size="10.00">fork</text>
</g>
<!-- b_project1fork -->
<g id="node3" class="node"><title>b_project1fork</title>
<polygon fill="none" stroke="black" points="366.482,-176 251.518,-176 251.518,-140 366.482,-140 366.482,-176"/>
<text text-anchor="middle" x="309" y="-154.4" font-family="Helvetica,sans-Serif" font-size="12.00">Bill&#39;s Project1 Fork</text>
</g>
<!-- project1&#45;&gt;b_project1fork -->
<g id="edge2" class="edge"><title>project1&#45;&gt;b_project1fork</title>
<path fill="none" stroke="black" d="M272.531,-259.775C279.612,-240.013 290.994,-208.25 299.159,-185.462"/>
<polygon fill="black" stroke="black" points="302.549,-176.004 303.412,-186.936 300.862,-180.711 299.175,-185.418 299.175,-185.418 299.175,-185.418 300.862,-180.711 294.939,-183.9 302.549,-176.004 302.549,-176.004"/>
<text text-anchor="middle" x="296.335" y="-215" font-family="Helvetica,sans-Serif" font-size="10.00">fork</text>
</g>
<!-- c_project1fork -->
<g id="node4" class="node"><title>c_project1fork</title>
<polygon fill="none" stroke="black" points="509.317,-176 384.683,-176 384.683,-140 509.317,-140 509.317,-176"/>
<text text-anchor="middle" x="447" y="-154.4" font-family="Helvetica,sans-Serif" font-size="12.00">Cary&#39;s Project1 Fork</text>
</g>
<!-- project1&#45;&gt;c_project1fork -->
<g id="edge3" class="edge"><title>project1&#45;&gt;c_project1fork</title>
<path fill="none" stroke="black" d="M293.098,-260.035C324.554,-239.18 376.548,-204.709 411.282,-181.681"/>
<polygon fill="black" stroke="black" points="419.717,-176.088 413.869,-185.364 415.55,-178.851 411.383,-181.614 411.383,-181.614 411.383,-181.614 415.55,-178.851 408.896,-177.863 419.717,-176.088 419.717,-176.088"/>
<text text-anchor="middle" x="370.335" y="-215" font-family="Helvetica,sans-Serif" font-size="10.00">fork</text>
</g>
<!-- a_project1fork&#45;&gt;project1 -->
<g id="edge7" class="edge"><title>a_project1fork&#45;&gt;project1</title>
<path fill="none" stroke="black" d="M185.253,-176.004C201.175,-196.116 227.095,-228.857 245.262,-251.805"/>
<polygon fill="black" stroke="black" points="251.572,-259.775 241.836,-254.727 248.468,-255.854 245.364,-251.934 245.364,-251.934 245.364,-251.934 248.468,-255.854 248.893,-249.141 251.572,-259.775 251.572,-259.775"/>
<text text-anchor="middle" x="247.85" y="-215" font-family="Helvetica,sans-Serif" font-size="10.00">pull request</text>
</g>
<!-- a_project1clone -->
<g id="node5" class="node"><title>a_project1clone</title>
<polygon fill="none" stroke="black" points="145.678,-74 16.3219,-74 16.3219,-38 145.678,-38 145.678,-74"/>
<text text-anchor="middle" x="81" y="-52.4" font-family="Helvetica,sans-Serif" font-size="12.00">Alice&#39;s Project1 Repo</text>
</g>
<!-- a_project1fork&#45;&gt;a_project1clone -->
<g id="edge4" class="edge"><title>a_project1fork&#45;&gt;a_project1clone</title>
<path fill="none" stroke="black" d="M94.3269,-83.2667 101.264,-95.8685 110.508,-110.543 121.094,-122 127.111,-128.513 134.473,-134.587 141.674,-139.822"/>
<polygon fill="black" stroke="black" points="89.4885,-74.1217 98.1427,-80.8563 91.8268,-78.5413 94.1651,-82.9608 94.1651,-82.9608 94.1651,-82.9608 91.8268,-78.5413 90.1875,-85.0653 89.4885,-74.1217 89.4885,-74.1217"/>
<text text-anchor="middle" x="133.953" y="-114" font-family="Helvetica,sans-Serif" font-size="10.00">clone</text>
</g>
<!-- b_project1clone -->
<g id="node6" class="node"><title>b_project1clone</title>
<polygon fill="none" stroke="black" points="387.67,-74 268.33,-74 268.33,-38 387.67,-38 387.67,-74"/>
<text text-anchor="middle" x="328" y="-52.4" font-family="Helvetica,sans-Serif" font-size="12.00">Bill&#39;s Project1 Repo</text>
</g>
<!-- b_project1fork&#45;&gt;b_project1clone -->
<g id="edge8" class="edge"><title>b_project1fork&#45;&gt;b_project1clone</title>
<path fill="none" stroke="black" d="M312.397,-139.764C315.288,-124.244 319.486,-101.704 322.8,-83.9143"/>
<polygon fill="black" stroke="black" points="324.633,-74.0777 327.225,-84.7327 323.717,-78.9931 322.801,-83.9086 322.801,-83.9086 322.801,-83.9086 323.717,-78.9931 318.377,-83.0845 324.633,-74.0777 324.633,-74.0777"/>
<text text-anchor="middle" x="328.953" y="-114" font-family="Helvetica,sans-Serif" font-size="10.00">clone</text>
</g>
<!-- c_project1clone -->
<g id="node7" class="node"><title>c_project1clone</title>
<polygon fill="none" stroke="black" points="541.504,-74 412.496,-74 412.496,-38 541.504,-38 541.504,-74"/>
<text text-anchor="middle" x="477" y="-52.4" font-family="Helvetica,sans-Serif" font-size="12.00">Cary&#39;s Project1 Repo</text>
</g>
<!-- c_project1fork&#45;&gt;c_project1clone -->
<g id="edge9" class="edge"><title>c_project1fork&#45;&gt;c_project1clone</title>
<path fill="none" stroke="black" d="M452.363,-139.764C456.928,-124.244 463.558,-101.704 468.79,-83.9143"/>
<polygon fill="black" stroke="black" points="471.683,-74.0777 473.178,-84.9411 470.272,-78.8745 468.861,-83.6713 468.861,-83.6713 468.861,-83.6713 470.272,-78.8745 464.544,-82.4016 471.683,-74.0777 471.683,-74.0777"/>
<text text-anchor="middle" x="471.953" y="-114" font-family="Helvetica,sans-Serif" font-size="10.00">clone</text>
</g>
<!-- a_project1clone&#45;&gt;a_project1fork -->
<g id="edge6" class="edge"><title>a_project1clone&#45;&gt;a_project1fork</title>
<path fill="none" stroke="black" d="M105.591,-74.2355C118.314,-84.4384 133.536,-97.9161 145,-112 149.591,-117.64 153.832,-124.199 157.5,-130.566"/>
<polygon fill="black" stroke="black" points="162.437,-139.629 153.701,-133 160.045,-135.238 157.653,-130.847 157.653,-130.847 157.653,-130.847 160.045,-135.238 161.605,-128.694 162.437,-139.629 162.437,-139.629"/>
<text text-anchor="middle" x="179.52" y="-114" font-family="Helvetica,sans-Serif" font-size="10.00">push branch</text>
</g>
<!-- a_project1clone&#45;&gt;a_project1clone -->
<g id="edge5" class="edge"><title>a_project1clone&#45;&gt;a_project1clone</title>
<path fill="none" stroke="black" d="M145.945,-66.4089C156.551,-64.9188 163.839,-61.4492 163.839,-56 163.839,-52.5091 160.848,-49.8306 155.91,-47.9646"/>
<polygon fill="black" stroke="black" points="145.945,-45.5911 156.716,-43.5308 150.809,-46.7497 155.673,-47.9083 155.673,-47.9083 155.673,-47.9083 150.809,-46.7497 154.631,-52.2859 145.945,-45.5911 145.945,-45.5911"/>
<text text-anchor="middle" x="204.144" y="-53" font-family="Helvetica,sans-Serif" font-size="10.00">branch &amp; changes</text>
</g>
</g>
</svg>
