<?xml version="1.0" encoding="UTF-8" standalone="no"?>
<!DOCTYPE svg PUBLIC "-//W3C//DTD SVG 1.1//EN"
 "http://www.w3.org/Graphics/SVG/1.1/DTD/svg11.dtd">
<!-- Generated by graphviz version 2.39.0 (20140909.1705)
 -->
<!-- Title: G Pages: 1 -->
<svg width="365pt" height="1107pt"
 viewBox="0.00 0.00 365.03 1107.00" xmlns="http://www.w3.org/2000/svg" xmlns:xlink="http://www.w3.org/1999/xlink">
<g id="graph0" class="graph" transform="scale(1 1) rotate(0) translate(4 1103)">
<title>G</title>
<polygon fill="white" stroke="none" points="-4,4 -4,-1103 361.034,-1103 361.034,4 -4,4"/>
<text text-anchor="middle" x="178.517" y="-6.8" font-family="Helvetica,sans-Serif" font-weight="bold" font-size="14.00">Github Workflow</text>
<!-- start -->
<g id="node1" class="node"><title>start</title>
<ellipse fill="none" stroke="black" cx="257.685" cy="-1081" rx="27" ry="18"/>
<text text-anchor="middle" x="257.685" y="-1077.4" font-family="Helvetica,sans-Serif" font-size="12.00">Start</text>
</g>
<!-- project_type -->
<g id="node2" class="node"><title>project_type</title>
<polygon fill="none" stroke="black" points="257.685,-1026 197.642,-982 257.685,-938 317.728,-982 257.685,-1026"/>
<text text-anchor="middle" x="257.685" y="-990.4" font-family="Helvetica,sans-Serif" font-size="12.00">New or</text>
<text text-anchor="middle" x="257.685" y="-978.4" font-family="Helvetica,sans-Serif" font-size="12.00">Existing</text>
<text text-anchor="middle" x="257.685" y="-966.4" font-family="Helvetica,sans-Serif" font-size="12.00">Project?</text>
</g>
<!-- start&#45;&gt;project_type -->
<g id="edge1" class="edge"><title>start&#45;&gt;project_type</title>
<path fill="none" stroke="black" d="M257.685,-1062.84C257.685,-1055.3 257.685,-1046.11 257.685,-1036.66"/>
<polygon fill="black" stroke="black" points="261.185,-1036.38 257.685,-1026.38 254.185,-1036.38 261.185,-1036.38"/>
</g>
<!-- github_fork -->
<g id="node3" class="node"><title>github_fork</title>
<polygon fill="none" stroke="black" points="245.867,-882 165.502,-882 165.502,-846 245.867,-846 245.867,-882"/>
<text text-anchor="middle" x="205.685" y="-860.4" font-family="Helvetica,sans-Serif" font-size="12.00">Fork Project</text>
</g>
<!-- project_type&#45;&gt;github_fork -->
<g id="edge2" class="edge"><title>project_type&#45;&gt;github_fork</title>
<path fill="none" stroke="black" d="M217.838,-891.58 225.331,-908.583 234.991,-930.503 242.923,-948.502"/>
<polygon fill="black" stroke="black" points="220.942,-889.943 213.706,-882.203 214.536,-892.765 220.942,-889.943"/>
<text text-anchor="middle" x="248.192" y="-912" font-family="Helvetica,sans-Serif" font-size="10.00">Existing</text>
<text text-anchor="middle" x="248.192" y="-902" font-family="Helvetica,sans-Serif" font-size="10.00">Project</text>
</g>
<!-- github_new -->
<g id="node4" class="node"><title>github_new</title>
<polygon fill="none" stroke="black" points="356.884,-882 264.485,-882 264.485,-846 356.884,-846 356.884,-882"/>
<text text-anchor="middle" x="310.685" y="-860.4" font-family="Helvetica,sans-Serif" font-size="12.00">Create Project</text>
</g>
<!-- project_type&#45;&gt;github_new -->
<g id="edge3" class="edge"><title>project_type&#45;&gt;github_new</title>
<path fill="none" stroke="black" d="M272.589,-948.816C280.677,-930.81 290.56,-908.807 298.232,-891.724"/>
<polygon fill="black" stroke="black" points="301.56,-892.858 302.464,-882.302 295.174,-889.99 301.56,-892.858"/>
<text text-anchor="middle" x="309.246" y="-912" font-family="Helvetica,sans-Serif" font-size="10.00">New</text>
<text text-anchor="middle" x="309.246" y="-902" font-family="Helvetica,sans-Serif" font-size="10.00">Project</text>
</g>
<!-- git_clone -->
<g id="node5" class="node"><title>git_clone</title>
<polygon fill="none" stroke="black" points="300.706,-809 234.663,-809 234.663,-773 300.706,-773 300.706,-809"/>
<text text-anchor="middle" x="267.685" y="-787.4" font-family="Helvetica,sans-Serif" font-size="12.00">Git Clone</text>
</g>
<!-- github_fork&#45;&gt;git_clone -->
<g id="edge4" class="edge"><title>github_fork&#45;&gt;git_clone</title>
<path fill="none" stroke="black" d="M221.01,-845.955C228.462,-837.181 237.554,-826.476 245.727,-816.853"/>
<polygon fill="black" stroke="black" points="248.514,-818.978 252.32,-809.09 243.179,-814.447 248.514,-818.978"/>
</g>
<!-- github_new&#45;&gt;git_clone -->
<g id="edge5" class="edge"><title>github_new&#45;&gt;git_clone</title>
<path fill="none" stroke="black" d="M283.425,-817.722 288.959,-827.116 295.042,-837.444 300.055,-845.955"/>
<polygon fill="black" stroke="black" points="286.432,-815.93 278.341,-809.09 280.4,-819.483 286.432,-815.93"/>
</g>
<!-- git_branch -->
<g id="node6" class="node"><title>git_branch</title>
<polygon fill="none" stroke="black" points="303.875,-736 231.494,-736 231.494,-700 303.875,-700 303.875,-736"/>
<text text-anchor="middle" x="267.685" y="-714.4" font-family="Helvetica,sans-Serif" font-size="12.00">Git Branch</text>
</g>
<!-- git_clone&#45;&gt;git_branch -->
<g id="edge6" class="edge"><title>git_clone&#45;&gt;git_branch</title>
<path fill="none" stroke="black" d="M267.685,-772.955C267.685,-764.883 267.685,-755.176 267.685,-746.182"/>
<polygon fill="black" stroke="black" points="271.185,-746.09 267.685,-736.09 264.185,-746.09 271.185,-746.09"/>
</g>
<!-- commit_changes -->
<g id="node7" class="node"><title>commit_changes</title>
<polygon fill="none" stroke="black" points="260.886,-663 152.483,-663 152.483,-627 260.886,-627 260.886,-663"/>
<text text-anchor="middle" x="206.685" y="-641.4" font-family="Helvetica,sans-Serif" font-size="12.00">Commit Changes</text>
</g>
<!-- git_branch&#45;&gt;commit_changes -->
<g id="edge7" class="edge"><title>git_branch&#45;&gt;commit_changes</title>
<path fill="none" stroke="black" d="M228.288,-670.853 236.329,-680.476 245.274,-691.181 252.606,-699.955"/>
<polygon fill="black" stroke="black" points="230.899,-668.52 221.801,-663.09 225.528,-673.008 230.899,-668.52"/>
</g>
<!-- push_branch -->
<g id="node8" class="node"><title>push_branch</title>
<polygon fill="none" stroke="black" points="199.892,-590 115.477,-590 115.477,-554 199.892,-554 199.892,-590"/>
<text text-anchor="middle" x="157.685" y="-568.4" font-family="Helvetica,sans-Serif" font-size="12.00">Push Branch</text>
</g>
<!-- commit_changes&#45;&gt;push_branch -->
<g id="edge8" class="edge"><title>commit_changes&#45;&gt;push_branch</title>
<path fill="none" stroke="black" d="M175.426,-598.432 181.784,-607.903 188.801,-618.356 194.572,-626.955"/>
<polygon fill="black" stroke="black" points="178.307,-596.443 169.827,-590.09 172.495,-600.344 178.307,-596.443"/>
</g>
<!-- personal_or_collab -->
<g id="node9" class="node"><title>personal_or_collab</title>
<polygon fill="none" stroke="black" points="131.685,-517 45.6103,-473 131.685,-429 217.759,-473 131.685,-517"/>
<text text-anchor="middle" x="131.685" y="-481.4" font-family="Helvetica,sans-Serif" font-size="12.00">Personal or</text>
<text text-anchor="middle" x="131.685" y="-469.4" font-family="Helvetica,sans-Serif" font-size="12.00">Collaborative</text>
<text text-anchor="middle" x="131.685" y="-457.4" font-family="Helvetica,sans-Serif" font-size="12.00">Project?</text>
</g>
<!-- push_branch&#45;&gt;personal_or_collab -->
<g id="edge9" class="edge"><title>push_branch&#45;&gt;personal_or_collab</title>
<path fill="none" stroke="black" d="M144.531,-521.917 147.528,-533.326 150.535,-544.775 152.916,-553.842"/>
<polygon fill="black" stroke="black" points="147.843,-520.746 141.917,-511.963 141.072,-522.524 147.843,-520.746"/>
</g>
<!-- merge_branch -->
<g id="node10" class="node"><title>merge_branch</title>
<polygon fill="none" stroke="black" points="91.5545,-319 -0.185319,-319 -0.185319,-283 91.5545,-283 91.5545,-319"/>
<text text-anchor="middle" x="45.6846" y="-297.4" font-family="Helvetica,sans-Serif" font-size="12.00">Merge Branch</text>
</g>
<!-- personal_or_collab&#45;&gt;merge_branch -->
<g id="edge10" class="edge"><title>personal_or_collab&#45;&gt;merge_branch</title>
<path fill="none" stroke="black" d="M55.0827,-328.732 59.9198,-342.262 66.1629,-358.67 72.6846,-373 80.636,-390.472 83.5894,-394.392 93.2168,-411 98.6803,-420.425 104.814,-430.514 110.552,-439.758"/>
<polygon fill="black" stroke="black" points="58.2913,-327.305 51.6765,-319.029 51.6865,-329.624 58.2913,-327.305"/>
<text text-anchor="middle" x="113.418" y="-403" font-family="Helvetica,sans-Serif" font-size="10.00">Personal</text>
<text text-anchor="middle" x="113.418" y="-393" font-family="Helvetica,sans-Serif" font-size="10.00">Project</text>
</g>
<!-- pull_request -->
<g id="node11" class="node"><title>pull_request</title>
<polygon fill="none" stroke="black" points="197.584,-373 81.7854,-373 81.7854,-337 197.584,-337 197.584,-373"/>
<text text-anchor="middle" x="139.685" y="-351.4" font-family="Helvetica,sans-Serif" font-size="12.00">Send Pull Request</text>
</g>
<!-- personal_or_collab&#45;&gt;pull_request -->
<g id="edge14" class="edge"><title>personal_or_collab&#45;&gt;pull_request</title>
<path fill="none" stroke="black" d="M134.573,-430.399C135.636,-414.723 136.812,-397.368 137.768,-383.265"/>
<polygon fill="black" stroke="black" points="141.266,-383.409 138.451,-373.195 134.283,-382.935 141.266,-383.409"/>
<text text-anchor="middle" x="166.867" y="-403" font-family="Helvetica,sans-Serif" font-size="10.00">Collaborative</text>
<text text-anchor="middle" x="166.867" y="-393" font-family="Helvetica,sans-Serif" font-size="10.00">Project</text>
</g>
<!-- delete_branch -->
<g id="node13" class="node"><title>delete_branch</title>
<polygon fill="none" stroke="black" points="146.728,-131 54.6416,-131 54.6416,-95 146.728,-95 146.728,-131"/>
<text text-anchor="middle" x="100.685" y="-109.4" font-family="Helvetica,sans-Serif" font-size="12.00">Delete Branch</text>
</g>
<!-- merge_branch&#45;&gt;delete_branch -->
<g id="edge11" class="edge"><title>merge_branch&#45;&gt;delete_branch</title>
<path fill="none" stroke="black" d="M45.933,-282.818C46.7679,-258.175 50.0742,-213.104 62.6846,-177 67.2571,-163.909 74.6735,-150.547 81.746,-139.441"/>
<polygon fill="black" stroke="black" points="84.6871,-141.339 87.2834,-131.067 78.8482,-137.478 84.6871,-141.339"/>
</g>
<!-- accepted -->
<g id="node12" class="node"><title>accepted</title>
<polygon fill="none" stroke="black" points="144.685,-265 71.7699,-221 144.685,-177 217.599,-221 144.685,-265"/>
<text text-anchor="middle" x="144.685" y="-229.4" font-family="Helvetica,sans-Serif" font-size="12.00">Pull</text>
<text text-anchor="middle" x="144.685" y="-217.4" font-family="Helvetica,sans-Serif" font-size="12.00">Request</text>
<text text-anchor="middle" x="144.685" y="-205.4" font-family="Helvetica,sans-Serif" font-size="12.00">Accepted?</text>
</g>
<!-- pull_request&#45;&gt;accepted -->
<g id="edge15" class="edge"><title>pull_request&#45;&gt;accepted</title>
<path fill="none" stroke="black" d="M140.359,-336.928C140.96,-320.821 141.87,-296.419 142.701,-274.151"/>
<polygon fill="black" stroke="black" points="146.201,-274.231 143.076,-264.107 139.206,-273.97 146.201,-274.231"/>
</g>
<!-- accepted&#45;&gt;delete_branch -->
<g id="edge16" class="edge"><title>accepted&#45;&gt;delete_branch</title>
<path fill="none" stroke="black" d="M111.901,-140.531 117.488,-154.244 124.308,-170.984 130.277,-185.637"/>
<polygon fill="black" stroke="black" points="115.095,-139.093 108.08,-131.153 108.612,-141.734 115.095,-139.093"/>
<text text-anchor="middle" x="127.465" y="-151" font-family="Helvetica,sans-Serif" font-size="10.00">yes</text>
</g>
<!-- make_changes -->
<g id="node14" class="node"><title>make_changes</title>
<polygon fill="none" stroke="black" points="260.898,-131 164.471,-131 164.471,-95 260.898,-95 260.898,-131"/>
<text text-anchor="middle" x="212.685" y="-109.4" font-family="Helvetica,sans-Serif" font-size="12.00">Make Changes</text>
</g>
<!-- accepted&#45;&gt;make_changes -->
<g id="edge17" class="edge"><title>accepted&#45;&gt;make_changes</title>
<path fill="none" stroke="black" d="M164.903,-188.889C174.759,-173.235 186.474,-154.628 195.838,-139.756"/>
<polygon fill="black" stroke="black" points="198.96,-141.366 201.327,-131.039 193.037,-137.636 198.96,-141.366"/>
<text text-anchor="middle" x="195.246" y="-151" font-family="Helvetica,sans-Serif" font-size="10.00">no</text>
</g>
<!-- pull_master -->
<g id="node15" class="node"><title>pull_master</title>
<polygon fill="none" stroke="black" points="273.702,-58 197.667,-58 197.667,-22 273.702,-22 273.702,-58"/>
<text text-anchor="middle" x="235.685" y="-36.4" font-family="Helvetica,sans-Serif" font-size="12.00">Pull Master</text>
</g>
<!-- delete_branch&#45;&gt;pull_master -->
<g id="edge12" class="edge"><title>delete_branch&#45;&gt;pull_master</title>
<path fill="none" stroke="black" d="M134.055,-94.9551C151.985,-85.2596 174.275,-73.2066 193.407,-62.861"/>
<polygon fill="black" stroke="black" points="195.098,-65.9257 202.23,-58.0904 191.769,-59.7682 195.098,-65.9257"/>
</g>
<!-- make_changes&#45;&gt;commit_changes -->
<g id="edge18" class="edge"><title>make_changes&#45;&gt;commit_changes</title>
<path fill="none" stroke="black" d="M221.877,-131.212C231.641,-152.275 245.685,-188.258 245.685,-221 245.685,-572 245.685,-572 245.685,-572 245.685,-588.855 237.496,-605.591 228.623,-618.778"/>
<polygon fill="black" stroke="black" points="225.779,-616.738 222.773,-626.897 231.458,-620.83 225.779,-616.738"/>
</g>
<!-- pull_master&#45;&gt;git_branch -->
<g id="edge13" class="edge"><title>pull_master&#45;&gt;git_branch</title>
<path fill="none" stroke="black" d="M258.777,-58.1649C273.059,-71.5797 288.685,-91.2304 288.685,-113 288.685,-645 288.685,-645 288.685,-645 288.685,-660.343 284.347,-676.818 279.615,-690.226"/>
<polygon fill="black" stroke="black" points="276.253,-689.222 275.984,-699.813 282.799,-691.701 276.253,-689.222"/>
<text text-anchor="middle" x="315.093" y="-398" font-family="Helvetica,sans-Serif" font-size="10.00">And Repeat</text>
</g>
</g>
</svg>
